<svg width="25" height="24" viewBox="0 0 25 24" fill="none" xmlns="http://www.w3.org/2000/svg">
<path d="M23.0086 2.68028e-08H1.92831C1.20649 0.000433899 0.621346 0.58587 0.621491 1.30797V22.3883C0.621924 23.1101 1.20736 23.6953 1.92947 23.6951H13.2789V14.5318H10.2014V10.9451H13.2789V8.30558C13.2789 5.24463 15.1476 3.57856 17.8781 3.57856C19.1859 3.57856 20.3098 3.67604 20.6374 3.71957V6.91879H18.7545C17.269 6.91879 16.9813 7.6247 16.9813 8.66078V10.9451H20.5333L20.0705 14.5318H16.9813V23.6951H23.0086C23.7309 23.6953 24.3165 23.11 24.3166 22.3877C24.3166 22.3876 24.3166 22.3874 24.3166 22.3871V1.30682C24.3163 0.585002 23.7307 -0.000144597 23.0086 2.68028e-08Z" fill="#4A4A4A"/>
</svg>
