<?xml version="1.0" encoding="utf-8"?>
<!-- Generator: Adobe Illustrator 24.3.0, SVG Export Plug-In . SVG Version: 6.00 Build 0)  -->
<svg version="1.1"
	 id="svg70" inkscape:export-filename="G:\Users\suitedoalex\sites\google-podcasts-logo-0.png" inkscape:export-xdpi="96" inkscape:export-ydpi="96" inkscape:version="0.92.2 (5c3e80d, 2017-08-06)" sodipodi:docname="google-podcasts-logo.svg" xmlns:cc="http://creativecommons.org/ns#" xmlns:dc="http://purl.org/dc/elements/1.1/" xmlns:inkscape="http://www.inkscape.org/namespaces/inkscape" xmlns:rdf="http://www.w3.org/1999/02/22-rdf-syntax-ns#" xmlns:sodipodi="http://sodipodi.sourceforge.net/DTD/sodipodi-0.dtd" xmlns:svg="http://www.w3.org/2000/svg"
	 xmlns="http://www.w3.org/2000/svg" xmlns:xlink="http://www.w3.org/1999/xlink" x="0px" y="0px" viewBox="0 0 2834.256 383.431"
	 enable-background="new 0 0 2834.256 383.431" xml:space="preserve">
<sodipodi:namedview  bordercolor="#666666" borderopacity="1" gridtolerance="10" guidetolerance="10" id="namedview72" inkscape:current-layer="Group-3" inkscape:cx="469.43999" inkscape:cy="1611.0232" inkscape:pageopacity="0" inkscape:pageshadow="2" inkscape:window-height="837" inkscape:window-maximized="1" inkscape:window-width="1600" inkscape:window-x="-8" inkscape:window-y="-8" inkscape:zoom="0.038487783" objecttolerance="10" pagecolor="#ffffff" showgrid="false">
	</sodipodi:namedview>
<desc  id="desc4">Created with Sketch.</desc>
<g id="Group-3" transform="matrix(1.3159242,0,0,1.3159242,37.320241,3.9838645)">
	
		<path id="Podcasts-1_1_" inkscape:connector-curvature="0" inkscape:export-filename="G:\Users\suitedoalex\sites\google-podcasts-logo-4.png" inkscape:export-xdpi="11.098957" inkscape:export-ydpi="11.098957" fill="#FFFFFF" d="
		M989.229,219.411h-28.383V10.063h75.276c18.716,0,34.913,5.896,48.59,17.689c13.677,11.793,20.516,26.656,20.516,44.589
		s-6.838,32.796-20.516,44.589c-13.677,11.793-29.874,17.689-48.59,17.689h-46.893L989.229,219.411z M989.229,108.889h47.51
		c11.929,0,21.493-3.801,28.691-11.403c7.198-7.602,10.798-15.984,10.798-25.145s-3.599-17.543-10.798-25.145
		c-7.199-7.602-16.762-11.403-28.691-11.403h-47.51V108.889z M1128.761,93.393c14.603-14.619,33.216-21.929,55.84-21.929
		c22.624,0,41.237,7.261,55.84,21.783c14.603,14.522,21.904,32.698,21.904,54.53c0,21.832-7.301,40.008-21.904,54.53
		c-14.603,14.522-33.216,21.783-55.84,21.783c-22.624,0-41.237-7.261-55.84-21.783c-14.603-14.522-21.904-32.698-21.904-54.53
		S1114.158,107.817,1128.761,93.393L1128.761,93.393z M1149.74,185.494c9.872,9.356,21.493,14.035,34.861,14.035
		c13.369,0,24.938-4.727,34.707-14.181c9.77-9.454,14.654-21.977,14.654-37.572s-4.885-28.118-14.654-37.572
		c-9.769-9.454-21.338-14.181-34.707-14.181c-13.369,0-24.938,4.727-34.707,14.181c-9.77,9.454-14.654,21.978-14.654,37.572
		C1135.24,163.371,1140.073,175.943,1149.74,185.494L1149.74,185.494z M1347.889,224.089c-19.539,0-36.404-7.31-50.595-21.929
		c-14.191-14.619-21.287-32.747-21.287-54.384s7.096-39.764,21.287-54.384c14.192-14.619,31.057-21.929,50.595-21.929
		c11.518,0,21.853,2.339,31.005,7.017c9.152,4.678,15.991,10.526,20.516,17.543h1.234l-1.234-19.882V10.063h28.383v209.348h-27.149
		v-19.882h-1.234c-4.525,7.017-11.363,12.865-20.516,17.543C1369.741,221.75,1359.406,224.089,1347.889,224.089z M1352.516,199.529
		c13.369,0,24.732-4.678,34.09-14.035c9.358-9.356,14.037-21.929,14.037-37.718s-4.679-28.361-14.037-37.718
		c-9.358-9.356-20.722-14.035-34.09-14.035c-13.163,0-24.475,4.727-33.936,14.181c-9.461,9.454-14.191,21.978-14.191,37.572
		c0,15.594,4.73,28.118,14.191,37.572C1328.042,194.802,1339.353,199.529,1352.516,199.529L1352.516,199.529z M1526.293,224.089
		c-22.624,0-41.237-7.261-55.84-21.783c-14.603-14.522-21.904-32.698-21.904-54.53s7.301-40.008,21.904-54.53
		c14.603-14.522,33.216-21.783,55.84-21.783c16.865,0,30.851,3.898,41.957,11.695c11.106,7.797,19.23,17.64,24.372,29.531
		l-25.915,10.233c-7.816-17.933-21.904-26.899-42.266-26.899c-12.546,0-23.601,4.873-33.164,14.619
		c-9.564,9.746-14.345,22.124-14.345,37.133c0,15.009,4.782,27.387,14.345,37.133c9.564,9.746,20.619,14.619,33.164,14.619
		c21.184,0,35.787-8.966,43.808-26.9l25.298,10.233c-5.142,11.696-13.42,21.49-24.835,29.385
		C1557.298,220.142,1543.158,224.089,1526.293,224.089L1526.293,224.089z M1660.889,224.089c-16.042,0-29.462-4.386-40.26-13.157
		c-10.798-8.772-16.197-20.37-16.197-34.794c0-15.594,6.376-27.825,19.127-36.694c12.752-8.869,28.486-13.304,47.202-13.304
		c16.66,0,30.337,2.924,41.032,8.772v-4.093c0-10.526-3.805-18.956-11.415-25.291c-7.61-6.335-16.968-9.503-28.074-9.503
		c-8.227,0-15.682,1.852-22.367,5.555c-6.684,3.703-11.261,8.771-13.729,15.204l-25.915-10.526
		c3.496-8.577,10.386-16.52,20.67-23.829c10.284-7.31,23.858-10.965,40.723-10.965c19.333,0,35.375,5.36,48.127,16.081
		c12.752,10.721,19.128,25.827,19.128,45.32v86.546h-27.149v-19.882h-1.233c-11.312,16.374-27.869,24.56-49.67,24.56
		L1660.889,224.089z M1665.517,199.529c11.723,0,22.367-4.142,31.931-12.426c9.564-8.284,14.345-18.079,14.345-29.385
		c-8.021-6.238-20.053-9.356-36.095-9.356c-13.78,0-24.166,2.826-31.159,8.479c-6.993,5.653-10.489,12.28-10.489,19.882
		c0,7.017,3.188,12.573,9.564,16.666C1649.988,197.482,1657.29,199.529,1665.517,199.529L1665.517,199.529z M1822.017,224.089
		c-16.865,0-30.799-3.899-41.803-11.696c-11.004-7.797-19.076-17.543-24.218-29.238l25.297-9.941
		c8.021,17.933,21.698,26.9,41.032,26.9c8.844,0,16.094-1.852,21.75-5.555c5.656-3.703,8.484-8.577,8.484-14.619
		c0-9.356-6.89-15.691-20.67-19.005l-30.542-7.017c-9.667-2.339-18.819-6.774-27.457-13.303s-12.957-15.35-12.957-26.461
		c0-12.67,5.913-22.952,17.739-30.847c11.826-7.895,25.863-11.842,42.111-11.842c13.369,0,25.298,2.875,35.787,8.625
		c10.489,5.75,17.996,13.986,22.521,24.707l-24.68,9.649c-5.553-12.67-17.071-19.005-34.553-19.005
		c-8.432,0-15.528,1.657-21.287,4.971c-5.759,3.314-8.638,7.797-8.638,13.45c0,8.187,6.684,13.742,20.053,16.666l29.925,6.725
		c14.192,3.119,24.681,8.479,31.468,16.081c6.787,7.602,10.181,16.179,10.181,25.73c0,12.865-5.553,23.586-16.66,32.163
		C1853.793,219.801,1839.499,224.089,1822.017,224.089L1822.017,224.089z M1966.486,221.75c-15.837,0-27.92-3.996-36.25-11.988
		c-8.329-7.992-12.494-19.297-12.494-33.917v-75.143h-26.532v-24.56h26.532V32.284h28.382v43.858h37.021v24.56h-37.021v73.097
		c0,15.594,6.787,23.391,20.362,23.391c5.142,0,9.461-0.78,12.957-2.339l9.872,23.098
		C1983.145,220.483,1975.535,221.75,1966.486,221.75z M2065.912,224.089c-16.865,0-30.799-3.899-41.803-11.696
		c-11.003-7.797-19.076-17.543-24.218-29.238l25.298-9.941c8.021,17.933,21.698,26.9,41.031,26.9c8.844,0,16.094-1.852,21.75-5.555
		c5.656-3.703,8.484-8.577,8.484-14.619c0-9.356-6.89-15.691-20.67-19.005l-30.542-7.017c-9.667-2.339-18.819-6.774-27.457-13.303
		s-12.957-15.35-12.957-26.461c0-12.67,5.913-22.952,17.739-30.847c11.826-7.895,25.863-11.842,42.111-11.842
		c13.369,0,25.298,2.875,35.787,8.625c10.489,5.75,17.996,13.986,22.521,24.707l-24.68,9.649
		c-5.553-12.67-17.071-19.005-34.553-19.005c-8.433,0-15.528,1.657-21.287,4.971c-5.759,3.314-8.638,7.797-8.638,13.45
		c0,8.187,6.684,13.742,20.053,16.666l29.925,6.725c14.191,3.119,24.68,8.479,31.468,16.081s10.181,16.179,10.181,25.73
		c0,12.865-5.553,23.586-16.66,32.163C2097.688,219.801,2083.394,224.089,2065.912,224.089L2065.912,224.089z"/>
	
		<path id="Combined-Shape-6" inkscape:connector-curvature="0" inkscape:export-filename="G:\Users\suitedoalex\sites\google-podcasts-logo-4.png" inkscape:export-xdpi="11.098957" inkscape:export-ydpi="11.098957" fill="#FFFFFF" d="
		M-28.36,110.286c0-62.592,52.464-113.313,115.076-113.313c34.544,0,59.157,13.598,77.725,31.296l-22.022,21.799
		c-13.17-12.518-31.09-22.231-55.703-22.231c-45.555,0-81.179,36.692-81.179,82.233c0,45.541,35.624,82.233,81.179,82.233
		c29.579,0,46.419-11.871,57.214-22.663c8.852-8.849,14.681-21.584,16.84-38.85H86.715V99.926h104.281
		c1.079,5.612,1.727,12.087,1.727,19.425c0,23.31-6.261,52.016-26.772,72.305c-20.079,20.72-45.555,31.728-79.236,31.728
		C24.104,223.384-28.36,172.662-28.36,110.286L-28.36,110.286z M275.846,78.99c40.374,0,73.191,30.649,73.191,72.952
		c0,42.088-32.817,72.952-73.191,72.952c-40.374,0-73.191-30.864-73.191-72.952C202.655,109.638,235.472,78.99,275.846,78.99z
		 M275.846,195.972c22.022,0,41.237-18.13,41.237-44.246c0-26.332-19.215-44.246-41.237-44.246
		c-22.238,0-41.237,17.914-41.237,44.246C234.608,177.842,253.824,195.972,275.846,195.972z M435.613,78.99
		c40.374,0,73.191,30.649,73.191,72.952c0,42.088-32.817,72.952-73.191,72.952s-73.191-30.864-73.191-72.952
		C362.422,109.638,395.24,78.99,435.613,78.99z M435.613,195.972c22.022,0,41.237-18.13,41.237-44.246
		c0-26.332-18.999-44.246-41.237-44.246c-22.238,0-41.237,17.914-41.237,44.246C394.376,177.842,413.591,195.972,435.613,195.972z
		 M631.652,81.364h30.658v131.012c0,53.959-31.738,75.974-69.305,75.974c-35.408,0-56.782-23.742-64.771-43.167l27.851-11.655
		c4.966,11.871,17.056,25.9,36.703,25.9c23.965,0,38.862-14.893,38.862-42.735v-10.576h-1.08
		c-7.125,8.849-20.943,16.619-38.431,16.619c-36.487,0-69.952-31.944-69.952-72.736c0-41.224,33.465-73.168,69.952-73.168
		c17.488,0,31.306,7.77,38.431,16.403h1.08V81.364z M594.949,194.03c21.806,0,39.078-18.346,38.862-44.03
		c0-25.684-17.056-44.462-38.862-44.462c-22.022,0-40.59,18.778-40.59,44.462C554.36,175.468,572.927,194.03,594.949,194.03
		L594.949,194.03z M684.117,219.93V5.606h31.953V219.93H684.117z M803.942,195.973c16.409,0,27.635-7.986,36.056-20.073
		l24.829,16.619c-8.204,11.871-27.419,32.375-60.884,32.375c-41.453,0-72.327-32.159-72.327-72.952
		c0-43.383,31.306-72.952,68.873-72.952c37.783,0,56.35,30.001,62.396,46.405l3.238,8.202l-97.588,40.361
		C776.091,188.418,787.534,195.972,803.942,195.973L803.942,195.973z M801.568,107.048c-16.409,0-39.078,14.461-38.215,42.52
		l65.203-26.979C825.101,113.308,814.306,107.048,801.568,107.048z"/>
</g>
</svg>
