<?xml version="1.0" encoding="utf-8"?>
<!-- Generator: Adobe Illustrator 24.3.0, SVG Export Plug-In . SVG Version: 6.00 Build 0)  -->
<svg version="1.1"
	 id="svg70" inkscape:export-filename="G:\Users\suitedoalex\sites\google-podcasts-logo-0.png" inkscape:export-xdpi="96" inkscape:export-ydpi="96" inkscape:version="0.92.2 (5c3e80d, 2017-08-06)" sodipodi:docname="google-podcasts-logo.svg" xmlns:cc="http://creativecommons.org/ns#" xmlns:dc="http://purl.org/dc/elements/1.1/" xmlns:inkscape="http://www.inkscape.org/namespaces/inkscape" xmlns:rdf="http://www.w3.org/1999/02/22-rdf-syntax-ns#" xmlns:sodipodi="http://sodipodi.sourceforge.net/DTD/sodipodi-0.dtd" xmlns:svg="http://www.w3.org/2000/svg"
	 xmlns="http://www.w3.org/2000/svg" xmlns:xlink="http://www.w3.org/1999/xlink" x="0px" y="0px" viewBox="0 0 488.556 488.404"
	 enable-background="new 0 0 488.556 488.404" xml:space="preserve">
<sodipodi:namedview  bordercolor="#666666" borderopacity="1" gridtolerance="10" guidetolerance="10" id="namedview72" inkscape:current-layer="Group-3" inkscape:cx="469.43999" inkscape:cy="1611.0232" inkscape:pageopacity="0" inkscape:pageshadow="2" inkscape:window-height="837" inkscape:window-maximized="1" inkscape:window-width="1600" inkscape:window-x="-8" inkscape:window-y="-8" inkscape:zoom="0.038487783" objecttolerance="10" pagecolor="#ffffff" showgrid="false">
	</sodipodi:namedview>
<desc  id="desc4">Created with Sketch.</desc>
<g id="Group-7-2" transform="matrix(0.96197551,0,0,0.96197551,-94.775127,4058.5894)">
	
		<g id="Podcast_icon_final-3" transform="matrix(17.436483,0,0,17.436483,429.20315,-2343.9177)" inkscape:export-filename="G:\Users\suitedoalex\sites\google-podcasts-logo-4.png" inkscape:export-xdpi="11.098957" inkscape:export-ydpi="11.098957">
		<g id="_logo_Podcasts_192px-8">
			<polygon id="Shape-8" fill="#FAB908" points="-6.222,-87.686 -2.581,-87.686 -2.581,-92.098 -2.581,-93.862 -2.581,-98.274 
				-6.222,-98.274 -6.222,-93.862 -6.222,-92.098 			"/>
			<ellipse id="Oval-0" fill="#0066D9" cx="-17.145" cy="-93.972" rx="1.82" ry="1.82"/>
			<ellipse id="ellipse9-9" fill="#0066D9" cx="-17.145" cy="-91.987" rx="1.82" ry="1.82"/>
			<rect id="Rectangle-path-8" x="-18.965" y="-93.972" fill="#0066D9" width="3.641" height="1.985"/>
			<ellipse id="ellipse12-0" fill="#4285F4" cx="8.341" cy="-91.987" rx="1.82" ry="1.82"/>
			<ellipse id="ellipse14-0" fill="#4285F4" cx="8.341" cy="-93.972" rx="1.82" ry="1.82"/>
			<rect id="rect16-5" x="6.521" y="-93.972" fill="#4285F4" width="3.641" height="1.985"/>
			<ellipse id="ellipse18-2" fill="#EA4335" cx="-10.856" cy="-88.017" rx="1.82" ry="1.82"/>
			<ellipse id="ellipse20-8" fill="#EA4335" cx="-10.856" cy="-86.031" rx="1.82" ry="1.82"/>
			<rect id="rect22-6" x="-12.676" y="-88.017" fill="#EA4335" width="3.641" height="1.985"/>
			<ellipse id="ellipse24-4" fill="#EA4335" cx="-10.856" cy="-99.928" rx="1.82" ry="1.82"/>
			<ellipse id="ellipse26-3" fill="#EA4335" cx="-10.856" cy="-93.476" rx="1.82" ry="1.82"/>
			<rect id="rect28-2" x="-12.676" y="-99.928" fill="#EA4335" width="3.641" height="6.494"/>
			<ellipse id="ellipse30-7" fill="#34A853" cx="2.053" cy="-97.943" rx="1.82" ry="1.82"/>
			<ellipse id="ellipse32-9" fill="#34A853" cx="2.053" cy="-99.928" rx="1.82" ry="1.82"/>
			<rect id="rect34-0" x="0.232" y="-99.928" fill="#34A853" width="3.641" height="1.985"/>
			<ellipse id="ellipse36-4" fill="#FAB908" cx="-4.402" cy="-103.733" rx="1.82" ry="1.82"/>
			<ellipse id="ellipse38-1" fill="#FAB908" cx="-4.402" cy="-105.719" rx="1.82" ry="1.82"/>
			<rect id="rect40-9" x="-6.222" y="-105.719" fill="#FAB908" width="3.641" height="1.985"/>
			<ellipse id="ellipse42-1" fill="#FAB908" cx="-4.402" cy="-80.241" rx="1.82" ry="1.82"/>
			<ellipse id="ellipse44-5" fill="#FAB908" cx="-4.402" cy="-82.226" rx="1.82" ry="1.82"/>
			<rect id="rect46-3" x="-6.222" y="-82.226" fill="#FAB908" width="3.641" height="1.985"/>
			<ellipse id="ellipse48-2" fill="#34A853" cx="2.053" cy="-86.031" rx="1.82" ry="1.82"/>
			<ellipse id="ellipse50-8" fill="#34A853" cx="2.053" cy="-92.483" rx="1.82" ry="1.82"/>
			<rect id="rect52-3" x="0.232" y="-92.483" fill="#34A853" width="3.641" height="6.452"/>
			<ellipse id="ellipse54-7" fill="#FAB908" cx="-4.402" cy="-98.274" rx="1.82" ry="1.82"/>
			<ellipse id="ellipse56-5" fill="#FAB908" cx="-4.402" cy="-87.686" rx="1.82" ry="1.82"/>
		</g>
	</g>
</g>
</svg>
