<svg width="28" height="28" viewBox="0 0 28 28" fill="none" xmlns="http://www.w3.org/2000/svg">
<path d="M14.0196 0C6.54273 0 0.479492 6.06324 0.479492 13.5401C0.479492 21.0169 6.54273 27.0801 14.0196 27.0801C21.4964 27.0801 27.5596 21.0169 27.5596 13.5401C27.5596 6.06324 21.4964 0 14.0196 0ZM10.085 20.4688H6.78735V10.5478H10.085V20.4688ZM8.43626 9.1931H8.41478C7.3082 9.1931 6.59252 8.43134 6.59252 7.47931C6.59252 6.50578 7.3301 5.76511 8.45816 5.76511C9.58623 5.76511 10.2804 6.50578 10.3019 7.47931C10.3019 8.43134 9.58623 9.1931 8.43626 9.1931ZM21.9755 20.4688H18.6783V15.1613C18.6783 13.8275 18.2008 12.9178 17.0077 12.9178C16.0968 12.9178 15.5542 13.5314 15.3158 14.1237C15.2286 14.3357 15.2073 14.632 15.2073 14.9285V20.4688H11.9099C11.9099 20.4688 11.9531 11.4786 11.9099 10.5478H15.2073V11.9525C15.6455 11.2765 16.4296 10.315 18.1791 10.315C20.3487 10.315 21.9755 11.7329 21.9755 14.7801V20.4688Z" fill="#4A4A4A"/>
</svg>
