<svg width="57" height="75" viewBox="0 0 57 75" fill="none" xmlns="http://www.w3.org/2000/svg">
<path d="M0.415286 69.3598V71.9192H3.44955V72.3129H0.415286V74.9578H0V68.9661H3.8059V69.3598H0.415286Z" fill="#F2F2F2"/>
<path d="M10.4453 68.9661H10.8606V74.9578H10.4453V68.9661Z" fill="#F2F2F2"/>
<path d="M18.6758 68.9661H19.0911V74.5641H22.3691V74.9578H18.6771V68.9661H18.6758Z" fill="#F2F2F2"/>
<path d="M34.4888 74.9593L34.4808 69.8324L32.0976 74.1636H31.894L29.5108 69.8487V74.9593H29.1035V68.9675H29.4532L31.9985 73.5988L34.5438 68.9675H34.8854L34.8934 74.9593H34.4888Z" fill="#F2F2F2"/>
<path d="M46.4454 74.5655V74.9593H42.5176V68.9675H46.3235V69.3612H42.9315V71.7237H45.9658V72.1093H42.9315V74.5655H46.4454Z" fill="#F2F2F2"/>
<path d="M53.6719 74.7746C53.2954 74.6238 53.0007 74.4283 52.7891 74.188L52.9766 73.8621C53.1776 74.0848 53.4468 74.2654 53.7858 74.4053C54.1247 74.5451 54.481 74.6143 54.8548 74.6143C55.3973 74.6143 55.8059 74.5057 56.0832 74.2885C56.3592 74.0712 56.4985 73.7888 56.4985 73.4412C56.4985 73.1738 56.4248 72.9592 56.2788 72.799C56.1328 72.6388 55.9506 72.5166 55.7336 72.4311C55.5166 72.3455 55.2232 72.2573 54.8548 72.1663C54.4368 72.0577 54.1019 71.9518 53.8501 71.85C53.5982 71.7481 53.3839 71.5893 53.207 71.3747C53.0302 71.1602 52.9431 70.8737 52.9431 70.5139C52.9431 70.2234 53.0168 69.9559 53.1628 69.7142C53.3088 69.4712 53.5326 69.2797 53.834 69.1358C54.1354 68.9932 54.5105 68.9213 54.9606 68.9213C55.2754 68.9213 55.5835 68.9701 55.8876 69.0665C56.1917 69.1643 56.4543 69.2946 56.6767 69.4603L56.5226 69.812C56.2949 69.6463 56.0444 69.5214 55.7697 69.4359C55.4965 69.3503 55.2259 69.3069 54.9606 69.3069C54.4341 69.3069 54.0363 69.4182 53.7657 69.6409C53.4951 69.8635 53.3584 70.1514 53.3584 70.5058C53.3584 70.7746 53.4321 70.9878 53.5781 71.148C53.7241 71.3082 53.9063 71.4304 54.1233 71.5159C54.3404 71.6015 54.6351 71.6925 55.0102 71.7902C55.4281 71.8988 55.7617 72.0047 56.0109 72.1066C56.2601 72.2098 56.4731 72.3645 56.6499 72.5736C56.8254 72.7827 56.9138 73.0624 56.9138 73.4168C56.9138 73.7074 56.8388 73.9735 56.6901 74.2125C56.5414 74.4528 56.3123 74.6429 56.0028 74.7854C55.6934 74.928 55.3143 75 54.8642 75C54.4462 75.0013 54.0483 74.9253 53.6719 74.7746Z" fill="#F2F2F2"/>
<path d="M1.79688 0.225403H5.51301V13.9347H13.5655V17.1214H1.79688V0.225403Z" fill="#F2F2F2"/>
<path d="M22.6793 16.099C21.3611 15.3536 20.3296 14.3271 19.5834 13.0196C18.8373 11.712 18.4648 10.2416 18.4648 8.6082C18.4648 6.97617 18.8373 5.50436 19.5834 4.19684C20.3296 2.88931 21.3611 1.86285 22.6793 1.11744C23.9975 0.373384 25.4778 0 27.1189 0C28.7599 0 30.2375 0.373384 31.5477 1.11744C32.8579 1.86285 33.8894 2.88931 34.6436 4.19684C35.3965 5.50436 35.7729 6.97617 35.7729 8.6082C35.7729 10.2416 35.3965 11.712 34.6436 13.0196C33.8907 14.3271 32.8579 15.3536 31.5477 16.099C30.2375 16.8444 28.7613 17.2164 27.1189 17.2164C25.4778 17.2178 23.9975 16.8444 22.6793 16.099ZM29.6494 13.2572C30.4023 12.805 30.9944 12.175 31.4231 11.3672C31.8518 10.5593 32.0675 9.63874 32.0675 8.6082C32.0675 7.57766 31.8531 6.65846 31.4231 5.84923C30.9944 5.04137 30.4023 4.41001 29.6494 3.95923C28.8966 3.5071 28.0526 3.28171 27.1189 3.28171C26.1851 3.28171 25.3412 3.5071 24.5883 3.95923C23.8354 4.41136 23.2447 5.04137 22.8146 5.84923C22.3859 6.6571 22.1703 7.57766 22.1703 8.6082C22.1703 9.63874 22.3846 10.5579 22.8146 11.3672C23.2433 12.175 23.8354 12.8064 24.5883 13.2572C25.3412 13.7093 26.1851 13.9347 27.1189 13.9347C28.0526 13.9361 28.8966 13.7093 29.6494 13.2572Z" fill="#F2F2F2"/>
<path d="M53.4623 17.1268L53.4395 6.98705L48.7133 15.3413H47.0388L42.3367 7.20429V17.1268H38.8496V0.225403H41.9241L47.935 10.7277L53.8535 0.225403H56.9052L56.9507 17.1254H53.4623V17.1268Z" fill="#F2F2F2"/>
<path d="M14.3643 32.7926C14.884 33.5095 15.1439 34.3907 15.1439 35.4362C15.1439 36.9175 14.5974 38.0553 13.5042 38.8523C12.4111 39.6493 10.8156 40.0471 8.72173 40.0471H0.416016V23.1471H8.2609C10.2181 23.1471 11.7212 23.5422 12.7688 24.3297C13.8164 25.1186 14.3402 26.1885 14.3402 27.5408C14.3402 28.3623 14.1526 29.0941 13.7775 29.7377C13.4024 30.3812 12.8786 30.889 12.2061 31.2584C13.1251 31.5652 13.8445 32.0771 14.3643 32.7926ZM4.10938 26.0934V30.0771H7.80275C8.72039 30.0771 9.41566 29.9087 9.88989 29.5707C10.3641 29.2326 10.6012 28.7343 10.6012 28.073C10.6012 27.4132 10.3641 26.9176 9.88989 26.5877C9.41566 26.2577 8.72039 26.0921 7.80275 26.0921H4.10938V26.0934ZM10.6588 36.5957C11.1558 36.2576 11.405 35.7349 11.405 35.0261C11.405 33.6263 10.419 32.9257 8.44577 32.9257H4.10938V37.1022H8.44443C9.4237 37.1022 10.1618 36.9338 10.6588 36.5957Z" fill="#F2F2F2"/>
<path d="M30.8348 36.3269H23.3797L21.957 39.948H18.1484L25.3061 23.048H28.9767L36.1571 39.948H32.2574L30.8348 36.3269ZM29.6653 33.3574L27.1186 26.8864L24.572 33.3574H29.6653Z" fill="#F2F2F2"/>
<path d="M0 46.0349H7.09603C8.792 46.0349 10.2911 46.3852 11.5932 47.0871C12.8953 47.7891 13.9067 48.7775 14.6288 50.0511C15.3495 51.326 15.7112 52.8101 15.7112 54.5032C15.7112 56.1963 15.3508 57.6804 14.6288 58.9553C13.9067 60.2302 12.8953 61.2173 11.5932 61.9193C10.2911 62.6213 8.792 62.9716 7.09603 62.9716H0V46.0349ZM6.9192 59.7537C8.48121 59.7537 9.72707 59.2812 10.6568 58.3375C11.5865 57.3939 12.0513 56.1162 12.0513 54.5032C12.0513 52.8902 11.5865 51.6125 10.6568 50.6689C9.72707 49.7252 8.48121 49.2527 6.9192 49.2527H3.61567V59.7537H6.9192Z" fill="#F2F2F2"/>
<path d="M30.7371 59.3477H23.282L21.8594 62.9688H18.0508L25.2084 46.0688H28.879L36.0594 62.9688H32.1598L30.7371 59.3477ZM29.5663 56.3783L27.0196 49.9072L24.473 56.3783H29.5663Z" fill="#F2F2F2"/>
<path d="M56.998 51.9072H38.791V55.8121H56.998V51.9072Z" fill="#FFCD00"/>
<path d="M56.9999 59.0558H38.793V62.9607H56.9999V59.0558Z" fill="#FFCD00"/>
<path d="M56.994 44.7573H38.7871V48.6622H56.994V44.7573Z" fill="#FFCD00"/>
<path d="M56.9882 30.1694H38.7812V34.0744H56.9882V30.1694Z" fill="#FFCD00"/>
<path d="M56.9901 37.3181H38.7832V41.223H56.9901V37.3181Z" fill="#FFCD00"/>
<path d="M56.9862 23.0195H38.7793V26.9244H56.9862V23.0195Z" fill="#FFCD00"/>
</svg>
