<?xml version="1.0" encoding="utf-8"?>
<!-- Generator: Adobe Illustrator 24.3.0, SVG Export Plug-In . SVG Version: 6.00 Build 0)  -->
<svg version="1.1" id="Layer_1" xmlns="http://www.w3.org/2000/svg" xmlns:xlink="http://www.w3.org/1999/xlink" x="0px" y="0px"
	 viewBox="0 0 365.7 101.5" style="enable-background:new 0 0 365.7 101.5;" xml:space="preserve">
<style type="text/css">
	.st0{fill:#1ED760;}
</style>
<path class="st0" d="M35.1,38.8c-14.5-3.4-17-5.9-17-11c0-4.8,4.5-8,11.2-8c6.5,0,13,2.5,19.8,7.5c0.2,0.2,0.5,0.2,0.7,0.2
	c0.3,0,0.5-0.2,0.6-0.4l7.1-10c0.3-0.4,0.2-1-0.2-1.3c-8.1-6.5-17.1-9.6-27.8-9.6C13.9,6.2,3,15.6,3,29c0,14.4,9.4,19.5,25.7,23.4
	c13.8,3.2,16.2,5.9,16.2,10.6c0,5.3-4.7,8.6-12.3,8.6c-8.4,0-15.3-2.8-23-9.5c-0.2-0.2-0.4-0.2-0.7-0.2c-0.3,0-0.5,0.1-0.6,0.3
	l-7.9,9.4c-0.3,0.4-0.3,1,0.1,1.3c9,8,20,12.2,31.9,12.2c16.8,0,27.7-9.2,27.7-23.4C59.9,49.7,52.7,43.1,35.1,38.8
	C35.1,38.8,35.1,38.8,35.1,38.8z M97.9,24.5c-7.3,0-13.3,2.9-18.2,8.8v-6.6c0-0.5-0.4-0.9-0.9-0.9h-13c-0.5,0-0.9,0.4-0.9,0.9v73.6
	c0,0.5,0.4,0.9,0.9,0.9h13c0.5,0,0.9-0.4,0.9-0.9V77c4.9,5.5,10.9,8.2,18.2,8.2c13.5,0,27.3-10.4,27.3-30.4
	C125.2,35,111.5,24.5,97.9,24.5L97.9,24.5L97.9,24.5z M110.2,54.9c0,10.1-6.2,17.2-15.2,17.2c-8.9,0-15.5-7.4-15.5-17.2
	c0-9.8,6.7-17.2,15.5-17.2C103.8,37.7,110.2,44.9,110.2,54.9L110.2,54.9z M160.4,24.5c-17.5,0-31.1,13.4-31.1,30.6
	c0,17,13.6,30.3,30.9,30.3c17.5,0,31.2-13.4,31.2-30.5C191.4,37.9,177.8,24.5,160.4,24.5L160.4,24.5z M160.4,72.2
	c-9.3,0-16.3-7.5-16.3-17.3c0-9.9,6.8-17.1,16.1-17.1c9.3,0,16.4,7.5,16.4,17.4C176.5,65,169.7,72.2,160.4,72.2z M228.6,25.7h-14.2
	V11.2c0-0.5-0.4-0.9-0.9-0.9h-13c-0.5,0-1,0.4-1,0.9v14.6h-6.2c-0.5,0-0.9,0.4-0.9,0.9v11.1c0,0.5,0.4,0.9,0.9,0.9h6.2v28.8
	c0,11.6,5.8,17.5,17.2,17.5c4.6,0,8.5-1,12.1-3c0.3-0.2,0.5-0.5,0.5-0.8V70.6c0-0.3-0.2-0.6-0.5-0.8c-0.3-0.2-0.6-0.2-0.9,0
	c-2.5,1.2-4.9,1.8-7.6,1.8c-4.1,0-6-1.9-6-6.1V38.7h14.2c0.5,0,0.9-0.4,0.9-0.9V26.7C229.6,26.2,229.2,25.7,228.6,25.7L228.6,25.7
	L228.6,25.7z M278.3,25.8V24c0-5.3,2-7.6,6.5-7.6c2.7,0,4.9,0.5,7.3,1.3c0.3,0.1,0.6,0,0.9-0.1c0.2-0.2,0.4-0.5,0.4-0.8V5.9
	c0-0.4-0.3-0.8-0.7-0.9c-2.6-0.8-5.8-1.5-10.8-1.5c-12,0-18.3,6.7-18.3,19.5v2.7h-6.2c-0.5,0-1,0.4-1,0.9v11.2c0,0.5,0.4,0.9,1,0.9
	h6.2v44.4c0,0.5,0.4,0.9,1,0.9h12.9c0.5,0,1-0.4,1-0.9V38.7h12.1l18.5,44.4c-2.1,4.7-4.2,5.6-7,5.6c-2.3,0-4.7-0.7-7.1-2
	c-0.2-0.1-0.5-0.1-0.8-0.1c-0.2,0.1-0.5,0.3-0.6,0.5l-4.4,9.6c-0.2,0.5,0,1,0.4,1.2c4.6,2.5,8.7,3.5,13.8,3.5
	c9.6,0,14.9-4.5,19.5-16.4l22.5-58c0.1-0.3,0.1-0.6-0.1-0.9c-0.2-0.3-0.5-0.4-0.8-0.4h-13.5c-0.4,0-0.8,0.3-0.9,0.6l-13.8,39.4
	l-15.1-39.5c-0.1-0.4-0.5-0.6-0.9-0.6L278.3,25.8L278.3,25.8L278.3,25.8z M249.5,25.7h-13c-0.5,0-1,0.4-1,0.9v56.5
	c0,0.5,0.4,0.9,1,0.9h13c0.5,0,1-0.4,1-0.9V26.7C250.4,26.1,250,25.7,249.5,25.7C249.5,25.7,249.5,25.7,249.5,25.7z M243.1,0
	c-5.1,0-9.3,4.2-9.3,9.3c0,5.1,4.2,9.3,9.3,9.3s9.3-4.2,9.3-9.3C252.4,4.2,248.2,0,243.1,0z M356.5,43.9c-5.1,0-9.1-4.1-9.1-9.1
	s4-9.2,9.2-9.2s9.1,4.1,9.1,9.1C365.7,39.7,361.6,43.9,356.5,43.9z M356.6,26.5c-4.7,0-8.2,3.7-8.2,8.3c0,4.5,3.5,8.2,8.2,8.2
	c4.7,0,8.2-3.7,8.2-8.3C364.7,30.2,361.2,26.5,356.6,26.5z M358.6,35.7l2.6,3.6H359l-2.3-3.3h-2v3.3h-1.8v-9.6h4.3
	c2.2,0,3.7,1.1,3.7,3.1C360.8,34.3,359.9,35.3,358.6,35.7L358.6,35.7z M357,31.3h-2.4v3h2.4c1.2,0,1.9-0.6,1.9-1.5
	C358.9,31.9,358.2,31.3,357,31.3z"/>
</svg>
