<svg width="29" height="28" viewBox="0 0 29 28" fill="none" xmlns="http://www.w3.org/2000/svg">
<g clip-path="url(#clip0)">
<path d="M14.1394 0C6.38737 0 0.100952 6.06324 0.100952 13.5401C0.100952 21.0169 6.38737 27.0801 14.1394 27.0801C21.8915 27.0801 28.1779 21.0169 28.1779 13.5401C28.1779 6.06324 21.8915 0 14.1394 0ZM20.5492 10.5571C20.5554 10.6904 20.5584 10.8242 20.5584 10.9587C20.5584 15.0654 17.3174 19.801 11.3905 19.8012H11.3907H11.3905C9.57075 19.8012 7.87742 19.2868 6.45142 18.4052C6.70355 18.4339 6.96017 18.4482 7.22001 18.4482C8.72976 18.4482 10.1191 17.9515 11.2221 17.1178C9.81152 17.0926 8.62223 16.1941 8.2118 14.9592C8.40823 14.9956 8.61023 15.0154 8.81737 15.0154C9.11148 15.0154 9.39638 14.9772 9.66714 14.9059C8.19274 14.6212 7.08206 13.3645 7.08206 11.8595C7.08206 11.8455 7.08206 11.8329 7.08249 11.8199C7.51669 12.0527 8.01323 12.1928 8.5419 12.2085C7.6767 11.6517 7.10798 10.6999 7.10798 9.62159C7.10798 9.05219 7.26756 8.51874 7.54432 8.05945C9.13333 9.93997 11.5081 11.1767 14.1861 11.3067C14.1309 11.079 14.1024 10.8418 14.1024 10.598C14.1024 8.88236 15.5455 7.49046 17.3249 7.49046C18.2518 7.49046 19.089 7.86834 19.677 8.47246C20.4111 8.33279 21.1004 8.07412 21.7231 7.71814C21.4821 8.44353 20.9714 9.05219 20.3061 9.4371C20.9579 9.36189 21.5792 9.19516 22.1564 8.94765C21.7252 9.57098 21.1784 10.1185 20.5492 10.5571Z" fill="#4A4A4A"/>
</g>
<defs>
<clipPath id="clip0">
<rect width="28.0769" height="27.0801" fill="white" transform="translate(0.100952)"/>
</clipPath>
</defs>
</svg>
