<svg width="28" height="28" viewBox="0 0 28 28" fill="none" xmlns="http://www.w3.org/2000/svg">
<g clip-path="url(#clip0)">
<path d="M23.1364 2.5791C25.7565 2.64795 27.0671 4.1353 27.0801 7.04504C27.0801 7.236 27.0736 7.43474 27.0632 7.63868C26.9476 10.1055 25.1122 13.466 21.549 17.7189C17.8742 22.1744 14.7566 24.4048 12.1963 24.4165C10.6037 24.4165 9.28131 23.0525 8.22003 20.3234L7.1055 16.5823L6.00395 12.8464C5.19208 10.1392 4.32435 8.78829 3.39817 8.78829C3.19553 8.78829 2.49277 9.18319 1.286 9.97038L0 8.44926L1.99525 6.79174L3.95803 5.15111C5.71557 3.743 7.05224 2.98179 7.96933 2.86878C8.09143 2.85579 8.21354 2.85189 8.33824 2.85189C10.2205 2.85189 11.3961 4.20414 11.8572 6.90995C12.1144 8.45315 12.3275 9.70798 12.5002 10.6718C12.6678 11.6383 12.8081 12.3112 12.9198 12.6944C13.542 15.2534 14.2123 16.5394 14.9332 16.5498C15.4866 16.5498 16.3387 15.7158 17.4897 14.0479C18.6146 12.3345 19.2199 11.0654 19.2979 10.2393C19.3225 10.0717 19.3316 9.91452 19.3316 9.76903C19.3316 8.6506 18.7159 8.09333 17.4897 8.09333C16.8674 8.09333 16.2037 8.22583 15.4931 8.48173C16.7661 4.55747 19.2134 2.59209 22.8324 2.5791C22.9337 2.5791 23.0338 2.5791 23.1364 2.5791Z" fill="#4A4A4A"/>
</g>
<defs>
<clipPath id="clip0">
<rect width="27.0801" height="27.0801" fill="white"/>
</clipPath>
</defs>
</svg>
