<svg width="28" height="28" viewBox="0 0 28 28" fill="none" xmlns="http://www.w3.org/2000/svg">
<g clip-path="url(#clip0)">
<path d="M0.881886 7.96164C0.945326 6.52276 1.17801 5.53355 1.51133 4.67639C1.85519 3.76653 2.3842 2.95193 3.07729 2.27475C3.75446 1.58704 4.57443 1.05265 5.47375 0.714168C6.33588 0.380849 7.31992 0.148166 8.75879 0.0847262C10.2084 0.0159132 10.6686 1.43471e-06 14.3452 1.12837e-06C18.0219 8.22039e-07 18.4821 0.0159125 19.9263 0.0793525C21.3652 0.142793 22.3544 0.375682 23.2114 0.708794C24.1214 1.05265 24.936 1.58166 25.6132 2.27475C26.3009 2.95193 26.8351 3.7719 27.1738 4.67122C27.5071 5.53355 27.7398 6.51739 27.8032 7.95626C27.872 9.40588 27.888 9.86608 27.888 13.5427C27.888 17.2193 27.872 17.6795 27.8086 19.1238C27.7452 20.5627 27.5123 21.5519 27.179 22.409C26.8351 23.3189 26.3009 24.1335 25.6132 24.8107C24.936 25.4984 24.1161 26.0328 23.2167 26.3713C22.3544 26.7046 21.3706 26.9373 19.9315 27.0007C18.4875 27.0643 18.027 27.0801 14.3504 27.0801C10.6738 27.0801 10.2136 27.0643 8.76934 27.0007C7.33046 26.9373 6.34125 26.7046 5.48429 26.3713C3.66437 25.6676 2.2255 24.2288 1.52187 22.409C1.18876 21.5467 0.955868 20.5627 0.892427 19.1238C0.828987 17.6796 0.813074 17.2194 0.813073 13.5427C0.813073 9.86608 0.818446 9.40588 0.881886 7.96164ZM3.32051 19.018C3.37878 20.3405 3.60093 21.0547 3.78608 21.5308C4.24112 22.7105 5.17743 23.6468 6.35716 24.1019C6.83328 24.287 7.55261 24.5092 8.86997 24.5672C10.2983 24.6309 10.7267 24.6466 14.3399 24.6466C17.9531 24.6466 18.3868 24.6309 19.81 24.5672C21.1325 24.5092 21.8467 24.287 22.3228 24.1019C22.9099 23.8849 23.4443 23.541 23.878 23.0914C24.3277 22.6523 24.6715 22.1233 24.8885 21.5362C25.0737 21.0601 25.2958 20.3405 25.3539 19.0234C25.4175 17.595 25.4332 17.1664 25.4332 13.5533C25.4332 9.94006 25.4175 9.50631 25.3539 8.08335C25.2958 6.76082 25.0737 6.04665 24.8885 5.57054C24.6715 4.98325 24.3277 4.44908 23.8726 4.01512C23.4337 3.56546 22.9047 3.2216 22.3174 3.00483C21.8413 2.81968 21.1218 2.59753 19.8046 2.53926C18.3763 2.47582 17.9477 2.45991 14.3347 2.45991C10.7161 2.45991 10.2878 2.47582 8.8646 2.53926C7.54207 2.59753 6.8279 2.81968 6.35179 3.00483C5.76471 3.2216 5.23032 3.56546 4.79658 4.01512C4.34692 4.45424 4.00306 4.98326 3.78608 5.57054C3.60093 6.04665 3.37878 6.76599 3.32051 8.08335C3.25707 9.51168 3.24116 9.94006 3.24116 13.5533C3.24116 17.1664 3.25707 17.5897 3.32051 19.018Z" fill="#4A4A4A"/>
<path d="M14.3478 6.58618C18.1883 6.58618 21.3043 9.70198 21.3043 13.5427C21.3043 17.3834 18.1883 20.4992 14.3478 20.4992C10.5071 20.4992 7.39131 17.3834 7.39131 13.5427C7.39131 9.70198 10.5071 6.58618 14.3478 6.58618ZM14.3478 18.0552C16.8393 18.0552 18.8603 16.0344 18.8603 13.5427C18.8603 11.051 16.8393 9.03018 14.3478 9.03018C11.8561 9.03018 9.83531 11.051 9.83531 13.5427C9.83531 16.0344 11.8561 18.0552 14.3478 18.0552Z" fill="#4A4A4A"/>
<path d="M5.49196 6.31116C5.49196 7.208 6.21915 7.93519 7.1162 7.93519C8.01305 7.93519 8.74023 7.208 8.74023 6.31116C8.74023 5.41411 8.01305 4.68713 7.1162 4.68713C6.21915 4.68713 5.49196 5.41411 5.49196 6.31116Z" fill="#4A4A4A"/>
</g>
<defs>
<clipPath id="clip0">
<rect width="27.0801" height="27.0801" fill="white" transform="matrix(-1 8.33197e-08 9.17279e-08 1 27.9381 0)"/>
</clipPath>
</defs>
</svg>
