<svg width="228" height="291" viewBox="0 0 228 291" fill="none" xmlns="http://www.w3.org/2000/svg">
<path d="M1.66114 269.022V278.949H13.7982V280.476H1.66114V290.735H0V267.495H15.2236V269.022H1.66114Z" fill="#333333"/>
<path d="M41.7805 267.495H43.4416V290.735H41.7805V267.495Z" fill="#333333"/>
<path d="M74.7031 267.495H76.3643V289.207H89.4766V290.735H74.7085V267.495H74.7031Z" fill="#333333"/>
<path d="M137.955 290.74L137.923 270.855L128.39 287.654H127.576L118.043 270.918V290.74H116.414V267.5H117.813L127.994 285.463L138.175 267.5H139.541L139.574 290.74H137.955Z" fill="#333333"/>
<path d="M185.78 289.213V290.74H170.069V267.5H185.292V269.027H171.725V278.19H183.862V279.686H171.725V289.213H185.78Z" fill="#333333"/>
<path d="M214.684 290.024C213.178 289.439 211.999 288.681 211.152 287.749L211.903 286.485C212.706 287.349 213.784 288.049 215.139 288.591C216.495 289.134 217.92 289.402 219.415 289.402C221.586 289.402 223.22 288.981 224.329 288.139C225.433 287.296 225.99 286.201 225.99 284.852C225.99 283.815 225.696 282.983 225.111 282.361C224.527 281.74 223.799 281.266 222.931 280.934C222.062 280.602 220.889 280.26 219.415 279.907C217.743 279.486 216.404 279.075 215.396 278.68C214.389 278.285 213.532 277.669 212.824 276.837C212.117 276.005 211.769 274.894 211.769 273.498C211.769 272.371 212.063 271.334 212.648 270.396C213.232 269.454 214.126 268.711 215.332 268.153C216.538 267.6 218.038 267.321 219.839 267.321C221.098 267.321 222.33 267.51 223.547 267.884C224.763 268.264 225.813 268.769 226.703 269.412L226.087 270.776C225.176 270.133 224.174 269.649 223.075 269.317C221.982 268.985 220.9 268.817 219.839 268.817C217.733 268.817 216.141 269.248 215.059 270.112C213.976 270.976 213.43 272.092 213.43 273.467C213.43 274.509 213.725 275.336 214.309 275.958C214.893 276.579 215.622 277.053 216.49 277.385C217.358 277.717 218.537 278.069 220.037 278.449C221.709 278.87 223.043 279.281 224.04 279.676C225.036 280.076 225.888 280.676 226.596 281.487C227.298 282.298 227.651 283.383 227.651 284.758C227.651 285.885 227.351 286.917 226.757 287.844C226.162 288.776 225.245 289.513 224.008 290.066C222.77 290.619 221.253 290.898 219.453 290.898C217.781 290.903 216.19 290.608 214.684 290.024Z" fill="#333333"/>
<path d="M7.19121 0.874268H22.0558V54.0477H54.2659V66.4077H7.19121V0.874268Z" fill="#333333"/>
<path d="M90.7199 62.4421C85.4471 59.5509 81.3211 55.5696 78.3364 50.4982C75.3517 45.4268 73.862 39.7234 73.862 33.3881C73.862 27.0581 75.3517 21.3494 78.3364 16.278C81.3211 11.2066 85.4471 7.22532 90.7199 4.33414C95.9927 1.44822 101.914 0 108.478 0C115.042 0 120.953 1.44822 126.193 4.33414C131.434 7.22532 135.56 11.2066 138.577 16.278C141.588 21.3494 143.094 27.0581 143.094 33.3881C143.094 39.7234 141.588 45.4268 138.577 50.4982C135.565 55.5696 131.434 59.5509 126.193 62.4421C120.953 65.3333 115.048 66.7762 108.478 66.7762C101.914 66.7815 95.9927 65.3333 90.7199 62.4421ZM118.6 51.4198C121.612 49.6661 123.98 47.2226 125.695 44.0892C127.41 40.9557 128.272 37.3852 128.272 33.3881C128.272 29.391 127.415 25.8258 125.695 22.6871C123.98 19.5536 121.612 17.1048 118.6 15.3564C115.589 13.6028 112.213 12.7286 108.478 12.7286C104.743 12.7286 101.367 13.6028 98.3558 15.3564C95.3443 17.1101 92.9812 19.5536 91.2611 22.6871C89.5464 25.8205 88.6837 29.391 88.6837 33.3881C88.6837 37.3852 89.541 40.9505 91.2611 44.0892C92.9759 47.2226 95.3443 49.6714 98.3558 51.4198C101.367 53.1735 104.743 54.0477 108.478 54.0477C112.213 54.0529 115.589 53.1735 118.6 51.4198Z" fill="#333333"/>
<path d="M213.848 66.4287L213.757 27.1003L194.852 59.5036H188.154L169.345 27.9429V66.4287H155.397V0.874268H167.695L191.739 41.6088L215.413 0.874268H227.619L227.802 66.4235H213.848V66.4287Z" fill="#333333"/>
<path d="M57.4595 127.191C59.5386 129.971 60.5782 133.389 60.5782 137.444C60.5782 143.19 58.3919 147.603 54.0193 150.694C49.6468 153.786 43.2648 155.329 34.8894 155.329H1.66654V89.7793H33.0461C40.8749 89.7793 46.8871 91.3118 51.0775 94.3662C55.2679 97.4259 57.3631 101.576 57.3631 106.821C57.3631 110.007 56.6129 112.846 55.1125 115.342C53.6121 117.838 51.5169 119.808 48.8269 121.24C52.5029 122.43 55.3804 124.416 57.4595 127.191ZM16.44 101.207V116.658H31.2135C34.884 116.658 37.6651 116.005 39.562 114.694C41.459 113.383 42.4074 111.45 42.4074 108.885C42.4074 106.326 41.459 104.404 39.562 103.124C37.6651 101.844 34.884 101.202 31.2135 101.202H16.44V101.207ZM42.6378 141.942C44.6258 140.63 45.6225 138.603 45.6225 135.854C45.6225 130.424 41.6786 127.707 33.7855 127.707H16.44V143.906H33.7802C37.6973 143.906 40.6498 143.253 42.6378 141.942Z" fill="#333333"/>
<path d="M123.343 140.899H93.5223L87.8316 154.944H72.5973L101.228 89.3948H115.91L144.632 154.944H129.033L123.343 140.899ZM118.665 129.382L108.478 104.283L98.2914 129.382H118.665Z" fill="#333333"/>
<path d="M0 178.553H28.3841C35.168 178.553 41.1642 179.912 46.3727 182.634C51.5812 185.357 55.6269 189.191 58.5151 194.13C61.398 199.075 62.8448 204.831 62.8448 211.398C62.8448 217.965 61.4034 223.721 58.5151 228.667C55.6269 233.612 51.5812 237.44 46.3727 240.163C41.1642 242.885 35.168 244.244 28.3841 244.244H0V178.553ZM27.6768 231.763C33.9248 231.763 38.9083 229.93 42.6271 226.27C46.3459 222.61 48.2053 217.655 48.2053 211.398C48.2053 205.142 46.3459 200.187 42.6271 196.527C38.9083 192.867 33.9248 191.034 27.6768 191.034H14.4627V231.763H27.6768Z" fill="#333333"/>
<path d="M122.951 230.188H93.1312L87.4404 244.234H72.2061L100.837 178.684H115.519L144.241 244.234H128.642L122.951 230.188ZM118.268 218.671L108.081 193.572L97.8949 218.671H118.268Z" fill="#333333"/>
<path d="M227.989 201.329H155.161V216.475H227.989V201.329Z" fill="#0000FF"/>
<path d="M228 229.056H155.172V244.202H228V229.056Z" fill="#7500D6"/>
<path d="M227.978 173.597H155.151V188.743H227.978V173.597Z" fill="#00BA00"/>
<path d="M227.952 117.016H155.124V132.162H227.952V117.016Z" fill="#FF7A00"/>
<path d="M227.962 144.743H155.135V159.889H227.962V144.743Z" fill="#FFE700"/>
<path d="M227.941 89.2843H155.113V104.43H227.941V89.2843Z" fill="#FF0000"/>
</svg>
