<svg width="23" height="26" viewBox="0 0 23 26" fill="none" xmlns="http://www.w3.org/2000/svg">
<path d="M16.438 16.3522H15.3991L15.0309 15.9508C16.3196 14.2561 17.0955 12.056 17.0955 9.66266C17.0955 4.3259 13.2687 0 8.54774 0C3.82676 0 0 4.3259 0 9.66266C0 14.9994 3.82676 19.3253 8.54774 19.3253C10.665 19.3253 12.6112 18.4483 14.1103 16.9914L14.4654 17.4077V18.582L21.0406 26L23 23.785L16.438 16.3522ZM8.54774 16.3522C5.2733 16.3522 2.63007 13.3642 2.63007 9.66266C2.63007 5.96112 5.2733 2.97313 8.54774 2.97313C11.8222 2.97313 14.4654 5.96112 14.4654 9.66266C14.4654 13.3642 11.8222 16.3522 8.54774 16.3522Z" fill="#C4C4C4"/>
</svg>
