<svg width="25" height="25" viewBox="0 0 25 25" fill="none" xmlns="http://www.w3.org/2000/svg">
<g clip-path="url(#clip0)">
<path d="M23.8133 12.0106C23.8133 11.8116 23.6946 11.6316 23.5117 11.5533L7.68345 4.76965C7.50235 4.69204 7.29253 4.7286 7.1483 4.86289C7.00411 4.99718 6.95277 5.2039 7.01732 5.39005L9.31338 12.0106L7.01734 18.6311C6.95471 18.8117 7.00113 19.0115 7.13551 19.1459C7.13969 19.1501 7.14396 19.1542 7.14832 19.1582C7.29248 19.2925 7.50235 19.3291 7.68343 19.2515L23.5117 12.468C23.6946 12.3895 23.8133 12.2097 23.8133 12.0106ZM8.32658 6.12801L20.8915 11.513L10.1941 11.513L8.32658 6.12801ZM8.32658 17.8932L10.1942 12.5081L20.8916 12.5082L8.32658 17.8932Z" fill="#FFB800"/>
</g>
<defs>
<clipPath id="clip0">
<rect width="16.9842" height="16.9842" fill="white" transform="translate(12.0098) rotate(45)"/>
</clipPath>
</defs>
</svg>
